<?xml version="1.0" standalone="no"?>
<!DOCTYPE svg PUBLIC "-//W3C//DTD SVG 20010904//EN"
 "http://www.w3.org/TR/2001/REC-SVG-20010904/DTD/svg10.dtd">
<svg version="1.0" xmlns="http://www.w3.org/2000/svg"
 width="512.000000pt" height="512.000000pt" viewBox="0 0 512.000000 512.000000"
 preserveAspectRatio="xMidYMid meet">
<metadata>
Created by potrace 1.14, written by Peter Selinger 2001-2017
</metadata>
<g transform="translate(0.000000,512.000000) scale(0.100000,-0.100000)"
fill="#000000" stroke="none">
<path d="M2325 5037 c-55 -18 -106 -57 -135 -104 -17 -26 -30 -52 -30 -59 0
-7 -32 -16 -82 -23 -285 -41 -575 -136 -816 -267 -73 -40 -267 -165 -312 -200
-230 -184 -417 -385 -559 -603 -206 -315 -325 -638 -378 -1028 -16 -118 -6
-613 12 -644 2 -3 7 -28 10 -55 8 -56 54 -238 85 -333 19 -61 19 -101 0 -101
-4 0 -20 -23 -34 -52 -84 -167 34 -359 219 -359 l53 0 44 -67 c298 -448 759
-793 1275 -956 59 -19 122 -38 138 -42 17 -4 35 -8 40 -10 6 -1 24 -5 40 -8
17 -3 41 -8 55 -11 14 -3 45 -8 70 -11 25 -3 47 -8 50 -9 29 -18 398 -25 550
-12 452 40 900 221 1265 512 39 31 87 72 108 92 38 35 40 36 75 23 48 -17 129
-15 175 4 99 43 163 146 154 247 -3 30 -12 70 -21 88 l-17 32 64 102 c217 343
332 683 371 1097 9 86 9 194 2 218 -15 45 -89 60 -124 26 -16 -16 -20 -44 -27
-179 -5 -107 -10 -164 -20 -215 -3 -14 -7 -43 -11 -65 -10 -76 -65 -278 -100
-374 -47 -127 -148 -328 -218 -436 -52 -80 -58 -85 -78 -74 -31 17 -136 6
-185 -19 -85 -44 -141 -153 -128 -249 3 -25 11 -55 16 -66 11 -20 -10 -45
-101 -115 -19 -15 -43 -35 -54 -44 -30 -27 -204 -141 -281 -184 -211 -118
-494 -217 -712 -250 -21 -3 -45 -7 -53 -9 -93 -25 -506 -25 -655 0 -488 81
-910 294 -1248 628 -119 118 -201 215 -281 334 l-48 71 21 31 c75 104 59 247
-35 330 -44 39 -102 61 -161 63 -31 1 -33 4 -57 77 -72 221 -109 453 -110 691
0 95 9 247 18 296 2 10 7 42 10 69 4 28 18 96 32 151 158 661 619 1233 1229
1523 145 69 386 152 485 167 19 3 41 7 48 9 7 3 34 7 60 11 26 3 66 9 90 14
39 7 44 6 52 -14 13 -36 59 -85 106 -112 116 -68 279 -22 339 95 l17 34 66 -6
c157 -15 377 -73 567 -152 217 -89 468 -247 624 -392 l52 -48 -255 -253 -254
-253 -79 63 c-128 104 -281 190 -433 243 -69 25 -218 65 -260 71 -437 57 -803
-21 -1126 -242 l-91 -62 -54 15 c-119 31 -234 -20 -290 -130 -29 -56 -30 -145
-2 -207 l20 -45 -25 -40 c-14 -22 -44 -78 -67 -125 -129 -261 -181 -543 -152
-835 27 -276 139 -557 312 -781 57 -74 192 -212 250 -256 43 -32 44 -34 39
-78 -16 -134 106 -272 240 -272 60 0 139 27 168 57 27 29 41 30 95 11 22 -8
55 -16 74 -20 19 -3 72 -12 119 -20 58 -10 138 -13 255 -11 197 4 219 7 415
59 8 2 49 16 90 31 318 115 601 351 788 657 130 212 219 518 218 745 -1 85
-15 106 -72 106 -46 0 -74 -30 -75 -82 -1 -61 -10 -154 -26 -251 -15 -101
-101 -339 -145 -402 -10 -14 -18 -29 -18 -32 0 -10 -66 -109 -108 -162 -194
-246 -472 -423 -774 -494 -167 -39 -415 -46 -558 -15 -14 3 -38 8 -55 11 -16
2 -53 12 -81 21 -51 16 -52 16 -52 59 -2 56 -41 133 -88 172 -73 60 -186 72
-274 28 l-52 -26 -43 35 c-221 180 -387 442 -459 722 -34 133 -46 247 -41 393
2 69 7 141 10 160 30 170 66 282 133 415 69 139 63 133 125 122 101 -18 213
36 258 126 26 51 35 142 19 190 -14 43 -13 44 70 98 187 123 412 203 625 224
73 7 245 8 280 1 11 -2 46 -7 77 -10 209 -24 466 -137 656 -288 l63 -50 -221
-219 -220 -219 -49 34 c-275 194 -643 187 -909 -16 -449 -345 -392 -1036 109
-1297 121 -64 212 -85 359 -85 141 0 221 19 341 79 l65 33 53 -18 c160 -54
318 54 327 225 3 50 -1 70 -25 118 l-28 59 17 67 c24 90 34 173 26 217 -6 28
-14 38 -42 50 -30 13 -38 13 -64 -1 -32 -16 -35 -26 -45 -120 -4 -33 -11 -77
-17 -97 -11 -38 -11 -38 -64 -37 -39 1 -68 -5 -108 -25 -110 -54 -161 -167
-132 -293 7 -29 4 -33 -25 -48 -82 -43 -144 -58 -259 -61 -134 -4 -198 9 -308
63 -157 78 -297 257 -330 424 -15 75 -7 242 16 314 66 213 256 388 468 430 71
14 193 13 261 -2 68 -15 187 -67 232 -102 l24 -18 -133 -133 -133 -133 -49 12
c-71 16 -117 13 -168 -10 -90 -41 -140 -111 -148 -206 -14 -181 145 -311 319
-259 129 38 209 191 164 315 l-15 45 719 716 c395 394 732 727 749 738 32 23
46 66 30 95 -13 25 -151 155 -218 206 -19 14 -41 32 -49 39 -66 63 -486 301
-531 302 -9 0 -20 4 -25 8 -43 39 -400 132 -602 157 -48 6 -53 9 -63 41 -6 18
-31 54 -55 78 -63 66 -165 91 -250 63z m140 -160 c35 -29 45 -96 21 -133 -22
-32 -72 -54 -109 -47 -32 6 -77 55 -78 86 -2 45 3 63 29 90 34 36 98 38 137 4z
m-1071 -1346 c43 -45 42 -103 -3 -143 -27 -24 -40 -29 -70 -25 -53 7 -67 15
-86 51 -38 71 8 145 91 146 32 0 46 -6 68 -29z m1064 -977 c50 -32 54 -121 7
-161 -18 -16 -39 -23 -66 -23 -107 0 -141 147 -45 194 33 17 67 14 104 -10z
m528 -430 c72 -35 74 -143 2 -180 -40 -21 -73 -17 -106 11 -71 59 -38 176 50
182 12 1 36 -5 54 -13z m-2610 -598 c45 -45 47 -95 5 -136 -35 -36 -73 -46
-111 -30 -76 32 -86 138 -16 181 47 29 83 24 122 -15z m1404 -268 c60 -41 58
-131 -3 -168 -42 -26 -67 -25 -108 3 -46 31 -60 85 -35 132 31 57 90 71 146
33z m2406 -217 c20 -2 62 -51 67 -79 8 -42 -17 -91 -56 -107 -47 -20 -86 -10
-124 29 -28 30 -30 38 -23 67 4 19 11 41 15 51 8 21 60 46 88 43 12 -1 27 -3
33 -4z"/>
<path d="M4530 3882 c-8 -2 -34 -23 -57 -45 l-43 -41 -43 42 c-51 50 -104 58
-131 20 -27 -39 -20 -74 26 -124 l41 -45 -29 -32 c-16 -17 -32 -34 -35 -37
-23 -20 -27 -48 -11 -80 31 -61 86 -57 152 10 l31 32 49 -46 c27 -25 51 -46
53 -46 29 0 71 28 82 54 16 37 9 54 -43 109 l-36 37 36 38 c52 54 59 71 43
108 -13 32 -56 55 -85 46z"/>
<path d="M3707 3253 c-8 -10 -21 -40 -28 -68 -6 -27 -13 -51 -14 -52 -1 -2
-17 2 -36 7 -70 21 -95 21 -119 2 -18 -14 -24 -30 -24 -57 0 -44 15 -58 90
-80 l52 -15 -16 -60 c-15 -54 -15 -64 -2 -87 18 -32 59 -45 92 -29 16 8 29 30
42 74 11 34 24 62 30 62 6 0 34 -6 61 -14 57 -15 88 -8 105 24 25 46 -8 103
-65 113 -11 2 -32 7 -47 11 l-27 8 15 46 c19 63 18 84 -6 110 -26 27 -80 29
-103 5z"/>
<path d="M4808 3234 c-36 -19 -43 -51 -25 -114 17 -58 14 -62 -56 -75 -37 -7
-77 -44 -77 -71 0 -49 51 -90 92 -75 13 4 39 11 59 15 l36 6 12 -54 c12 -53
32 -81 61 -87 29 -6 67 11 80 36 12 23 12 34 -2 86 -12 44 -13 61 -5 64 7 2
31 9 55 15 80 20 106 77 57 125 -28 29 -32 29 -105 10 -30 -8 -55 -15 -56 -15
0 0 -7 25 -14 55 -19 79 -60 108 -112 79z"/>
</g>
</svg>
